<svg xmlns="http://www.w3.org/2000/svg" viewBox="0 0 64 64" width="64" height="64">
  <rect width="64" height="64" rx="14" fill="#2A0E1C"/>
  <g transform="translate(6 8)">
    <path d="M26 6 C 22 2, 14 4, 12 12 C 10 18, 16 22, 22 20 C 24 18, 26 14, 26 6 Z" fill="#2FA84C" stroke="#1E7A36" stroke-width="0.8"/>
    <path d="M38 6 C 42 2, 50 4, 52 12 C 54 18, 48 22, 42 20 C 40 18, 38 14, 38 6 Z" fill="#2FA84C" stroke="#1E7A36" stroke-width="0.8"/>
    <path d="M32 4 C 28 0, 32 -2, 36 0 C 38 4, 36 8, 32 10 Z" fill="#3CC15A" stroke="#1E7A36" stroke-width="0.8"/>
    <circle cx="22" cy="30" r="10" fill="#6B2BA8" stroke="#3F1266" stroke-width="1"/>
    <circle cx="42" cy="32" r="10" fill="#6B2BA8" stroke="#3F1266" stroke-width="1"/>
    <ellipse cx="19" cy="27" rx="2.5" ry="1.8" fill="#9B5BD9" opacity="0.7"/>
    <ellipse cx="39" cy="29" rx="2.5" ry="1.8" fill="#9B5BD9" opacity="0.7"/>
  </g>
</svg>
